<?xml version="1.0" standalone="no"?>
<!DOCTYPE svg PUBLIC "-//W3C//DTD SVG 1.1//EN" "http://www.w3.org/Graphics/SVG/1.1/DTD/svg11.dtd" >
<svg xmlns="http://www.w3.org/2000/svg">
<metadata>Generated by IcoMoon</metadata>
<defs>
<font id="icomoon" horiz-adv-x="1024">
<font-face units-per-em="1024" ascent="960" descent="-64" />
<missing-glyph horiz-adv-x="1024" />
<glyph unicode="&#x20;" horiz-adv-x="512" d="" />
<glyph unicode="&#xe900;" glyph-name="icon-1" d="M501.547 427.563h19.413c39.915 4.309 71.189 38.827 71.189 79.808 0 44.224-36.672 80.896-80.896 80.896s-80.896-36.672-80.896-80.896c0-40.96 31.275-75.499 71.189-79.787zM207.104 525.717h19.413c39.893 4.309 71.189 38.827 71.189 79.808 0 44.224-36.693 80.896-80.896 80.896-44.224 0-80.896-36.672-80.896-80.896 0-40.96 31.275-75.499 71.189-79.808zM1023.573 307.84v-48.533c0.003-0.173 0.005-0.377 0.005-0.581 0-17.555-14.231-31.787-31.787-31.787-0.204 0-0.408 0.002-0.612 0.006h0.031c-0.173-0.003-0.377-0.005-0.581-0.005-17.555 0-31.787 14.231-31.787 31.787 0 0.204 0.002 0.408 0.006 0.612v-0.031 48.533c0 80.896-62.549 146.688-141.291 152.085-3.243-1.067-7.552-1.067-10.773-1.067-4.331 0-7.552 1.067-11.883 1.067-58.517-4.885-109.099-42.389-130.219-96.597 39.083-39.296 63.36-93.163 63.36-152.555v-48.555c0.003-0.167 0.005-0.363 0.005-0.56 0-17.555-14.231-31.787-31.787-31.787-0.204 0-0.408 0.002-0.611 0.006h0.030c-0.173-0.003-0.377-0.005-0.581-0.005-17.555 0-31.787 14.231-31.787 31.787 0 0.197 0.002 0.393 0.005 0.589v-0.029 48.555c0 79.787-62.549 145.6-141.291 150.997h-21.547c-78.741-5.397-141.312-71.189-141.312-150.997v-48.555c0.003-0.166 0.005-0.363 0.005-0.56 0-17.555-14.231-31.787-31.787-31.787-0.197 0-0.393 0.002-0.589 0.005h0.029c-0.173-0.003-0.377-0.005-0.581-0.005-17.555 0-31.787 14.231-31.787 31.787 0 0.197 0.002 0.393 0.005 0.589v-0.029 48.555c0 59.691 24.533 113.813 63.957 153.173-20.608 54.848-70.677 92.139-129.749 97.067-4.331-1.088-7.552-1.088-11.883-1.088-3.221 0-7.552 1.067-10.773 1.067-78.741-6.464-141.312-72.256-141.312-152.085v-48.533c0.003-0.166 0.005-0.363 0.005-0.56 0-17.555-14.231-31.787-31.787-31.787-0.197 0-0.393 0.002-0.589 0.005h0.029c-0.173-0.003-0.377-0.005-0.581-0.005-17.555 0-31.787 14.231-31.787 31.787 0 0.197 0.002 0.393 0.005 0.589v-0.029 48.533c0 83.072 47.467 155.328 116.48 192-27.902 26.072-45.291 63.091-45.291 104.171 0 0.158 0 0.315 0.001 0.472v-0.024c0 79.829 65.771 145.621 145.6 145.621s145.621-65.792 145.621-145.621c0-40.96-17.259-77.653-45.291-104.619 22.186-11.875 41.16-26.454 57.418-43.631l0.096-0.103c-5.688 14.888-8.981 32.106-8.981 50.094 0 0.036 0 0.073 0 0.109v-0.006c0 79.829 65.792 145.621 145.6 145.621 79.829 0 145.621-65.792 145.621-145.621 0-17.493-3.157-34.197-8.939-49.707 15.997 17.12 34.606 31.538 55.243 42.68l1.141 0.563c-27.29 26.511-44.224 63.555-44.224 104.555 0 0.023 0 0.045 0 0.068v-0.004c0 79.829 65.792 145.621 145.621 145.621 79.808 0 145.621-65.792 145.621-145.621 0-40.96-17.28-77.653-45.312-104.619 69.766-37.593 116.597-109.753 117.545-192.936l0.001-0.13zM796.011 525.717h19.413c39.893 4.309 71.189 38.827 71.189 79.808 0 44.224-36.672 80.896-80.896 80.896s-80.896-36.672-80.896-80.896c0-40.96 31.275-75.499 71.189-79.808z" />
<glyph unicode="&#xe901;" glyph-name="icon-2" d="M517.504 262.955c-49.536 0-95.787 19.819-131.029 53.952-35.221 35.221-53.952 81.493-53.952 131.029s19.84 95.787 53.973 131.029c35.2 35.221 81.472 53.952 131.008 53.952 49.557 0 95.787-19.84 131.029-53.973 35.243-35.221 53.952-81.472 53.952-131.008 0-49.557-19.819-95.787-53.952-131.029-35.243-34.133-81.493-53.973-131.029-53.973zM517.504 569.045c-31.936 0-61.653-12.117-84.779-35.221-21.656-21.744-35.091-51.688-35.243-84.771v-0.029c0-31.915 12.117-61.653 35.243-84.779 21.741-21.643 51.677-35.069 84.75-35.221h0.029c31.936 0 61.653 12.096 84.779 35.221 21.763 21.458 35.244 51.265 35.244 84.221 0 0.196 0 0.392-0.001 0.588v-0.030c0 31.936-12.117 61.653-35.243 84.8-23.125 22.016-52.843 35.221-84.779 35.221zM1024 680.256v-462.443c0.001-0.146 0.002-0.319 0.002-0.492 0-42.298-34.289-76.587-76.587-76.587-0.173 0-0.346 0.001-0.519 0.002h-869.819c-0.146-0.001-0.319-0.002-0.492-0.002-42.298 0-76.587 34.289-76.587 76.587 0 0.173 0.001 0.346 0.002 0.519v-0.026 462.443c-0.001 0.146-0.002 0.319-0.002 0.492 0 42.298 34.289 76.587 76.587 76.587 0.173 0 0.346-0.001 0.519-0.002h869.819c0.146 0.001 0.319 0.002 0.492 0.002 42.298 0 76.587-34.289 76.587-76.587 0-0.173-0.001-0.346-0.002-0.519v0.026zM946.923 691.264h-38.528v-5.504c0.073-24.289 19.743-43.959 44.025-44.032h5.511v38.528c0 5.504-5.504 11.008-11.008 11.008zM66.069 680.256v-38.528h6.613c24.28 0.085 43.938 19.75 44.011 44.025v5.511h-39.616c-5.504 0-11.008-5.504-11.008-11.008zM117.824 212.309c-0.073 24.296-19.755 43.972-44.047 44.032h-7.707v-38.528c0-5.504 5.504-11.029 11.008-11.029h40.747zM957.931 217.813v38.528h-5.504c-24.289-0.073-43.959-19.743-44.032-44.025v-5.511h38.528c5.504 0 11.008 5.504 11.008 11.008zM957.931 322.411v253.227h-5.504c-60.544 0-110.101 49.557-110.101 110.123v5.504h-659.541v-5.504c0-60.565-49.557-110.101-110.123-110.101h-6.613v-253.248h7.723c60.565 0 110.101-49.557 110.101-110.101v-5.504h658.453v5.504c0 60.544 49.536 110.080 110.101 110.080z" />
<glyph unicode="&#xe902;" glyph-name="icon-3" d="M1024 921.722v-799.378c0-0.007 0-0.016 0-0.024 0-99.091-80.329-179.419-179.419-179.419-0.009 0-0.017 0-0.026 0h-671.377c-96.622 3.755-173.178 82.822-173.178 179.444v91.624c0 21.333 16.335 37.644 37.644 37.644h128v670.11c0 13.8 8.777 27.599 22.601 33.89 4.512 2.153 9.807 3.411 15.395 3.411 9.571 0 18.28-3.689 24.784-9.722l-0.023 0.021 105.399-92.843 105.423 94.11c13.8 12.556 36.376 12.556 50.2 0l105.399-94.11 105.423 94.11c13.8 12.556 36.376 12.556 50.176 0l105.423-94.11 105.423 92.867c6.478 6.002 15.181 9.685 24.743 9.685 5.595 0 10.896-1.261 15.633-3.513l-0.221 0.094c13.8-5.022 22.577-18.822 22.577-33.89zM179.444 18.188h519.558c-21.173 28.624-33.89 64.62-33.89 103.586 0 0.2 0 0.4 0.001 0.6v-0.031 53.979h-589.848v-53.979c0-0.080 0-0.174 0-0.269 0-57.375 46.512-103.887 103.887-103.887 0.094 0 0.189 0 0.283 0h-0.015zM948.712 122.344v715.313l-67.779-60.245c-15.043-12.556-36.376-12.556-50.176 0l-105.423 94.11-105.399-94.11c-13.824-12.556-36.401-12.556-50.225 0l-105.399 94.11-105.399-94.11c-13.824-12.556-36.401-12.556-50.225 0l-67.755 60.221v-586.021h461.824c21.333 0 37.644-16.335 37.644-37.644v-91.624c0-0.072 0-0.158 0-0.244 0-57.389 46.523-103.912 103.912-103.912 0.086 0 0.172 0 0.257 0h-0.013c0.072 0 0.158 0 0.244 0 57.389 0 103.912 46.523 103.912 103.912 0 0.086 0 0.172 0 0.257v-0.013zM799.378 373.321h-407.845c-21.333 0-37.644 16.335-37.644 37.669 0 21.309 16.311 37.644 37.644 37.644h407.845c21.333 0 37.644-16.335 37.644-37.644 0-21.333-16.335-37.669-37.644-37.669zM623.689 549.010h-232.155c-21.333 0-37.644 16.335-37.644 37.644 0 21.333 16.311 37.669 37.644 37.669h232.155c21.333 0 37.644-16.335 37.644-37.669 0-21.309-16.335-37.644-37.644-37.644z" />
<glyph unicode="&#xe903;" glyph-name="icon-4" d="M1001.028 447.863c0-153.805-125.611-279.45-279.45-279.45h-180.838l104.516-120.934c5.502-6.047 8.871-14.121 8.871-22.981 0-10.572-4.796-20.023-12.332-26.297l-0.055-0.045c-7.066-5.871-15.258-8.192-23.484-8.192-10.581 0-19.968 3.482-26.999 11.708l-154.999 181.999c0 1.161-1.195 1.161-1.195 2.355 0 1.161-1.161 1.161-1.161 2.355-1.161 1.161-2.355 2.321-2.355 3.516 0 1.161-1.161 1.161-1.161 2.355 0 1.161-1.195 2.321-1.195 3.516-1.161 1.161-1.161 1.161-1.161 2.355-1.161 2.321-1.161 4.676-1.161 7.031 0 1.161 1.161 3.516 1.161 5.871 1.161 1.161 1.161 1.161 1.161 2.355 0 1.161 1.195 2.355 1.195 3.516s1.161 1.161 1.161 2.355c0 1.161 0 2.355 1.195 3.516l3.516 3.516 154.965 180.838c6.516 7.266 15.934 11.817 26.414 11.817 9.32 0 17.799-3.599 24.125-9.482l-0.022 0.020c14.063-11.742 16.418-34.065 3.516-49.323l-105.677-122.129h181.999c115.063 0 208.998 93.935 208.998 208.998 0 115.098-93.935 209.033-208.998 209.033-0.184-0.004-0.402-0.006-0.62-0.006-19.115 0-34.611 15.496-34.611 34.611 0 0.218 0.002 0.436 0.006 0.653v-0.033c0 19.934 15.258 35.191 35.226 35.191 153.805 0 279.45-126.805 279.45-280.61zM583.031 672.119l-1.195-1.161-154.965-180.838c-6.968-6.931-16.45-11.34-26.959-11.74l-0.075-0.002c-8.192 0-16.418 2.355-23.484 8.226-14.063 11.742-16.418 34.065-3.516 49.323l105.677 122.095h-181.999c-115.063 0-208.998-93.935-208.998-208.998s93.935-208.998 208.998-208.998c19.968 0 35.226-15.258 35.226-35.226s-15.258-35.226-35.226-35.226c-153.805 0-279.45 125.611-279.45 279.45s125.611 279.45 279.45 280.644h181.999l-104.482 120.934c-5.511 6.050-8.886 14.129-8.886 22.997 0 10.563 4.788 20.007 12.313 26.281l0.055 0.044c6.047 5.502 14.121 8.871 22.981 8.871 10.572 0 20.023-4.796 26.297-12.332l0.045-0.055 153.805-180.838c0-1.161 1.161-2.355 1.161-2.355 1.195-1.161 2.389-1.161 2.389-2.355 0-1.161 1.161-2.321 1.161-3.516 0-1.161 1.161-1.161 1.161-2.355 0-1.161 1.161-2.321 1.161-3.516 1.195-1.161 1.195-1.161 1.195-2.355 0.762-1.732 1.205-3.752 1.205-5.874 0-0.407-0.016-0.811-0.048-1.21l0.003 0.053c0-2.355-1.161-3.516-1.161-5.871-1.195-1.161-1.195-1.161-1.195-2.355 0-1.161-1.161-2.355-1.161-3.516s-1.161-1.161-1.161-2.355c0-1.161 0-2.355-1.195-3.516 0-1.161-1.161-1.161-1.161-2.355z" />
<glyph unicode="&#xe904;" glyph-name="icon-5" d="M535.333 143.506c-33.938 0-61.623-27.648-61.623-61.623s28.891-61.659 62.903-61.659c17.591 0 33.938 6.29 45.275 18.871 10.057 11.337 16.347 25.161 15.104 41.509v1.28c0 33.975-27.685 61.623-61.659 61.623zM1002.094 468.114v-172.361c-0.049-58.296-42.021-106.774-97.392-116.918l-0.729-0.111c-16.384-76.727-85.577-134.583-167.351-134.583h-68.462c-5.872-22.249-17.079-41.374-32.192-56.622l0.009 0.009c-25.161-27.685-61.623-42.789-99.365-42.789-76.763 0-138.386 61.659-138.386 137.143 0.166 75.675 61.468 136.977 137.127 137.143h0.016c62.293-0.149 114.863-41.609 131.774-98.426l0.249-0.975h69.23c39.14 0.263 72.746 23.688 87.818 57.243l0.246 0.613h-33.938c-0.198-0.004-0.431-0.006-0.664-0.006-20.481 0-37.083 16.603-37.083 37.083 0 0.234 0.002 0.467 0.006 0.699l-0.001-0.035v333.385c0 21.394 16.347 37.742 37.742 37.742h15.067v2.523c0 0.098 0 0.214 0 0.329 0 163.098-132.217 295.314-295.314 295.314-0.116 0-0.232 0-0.347 0h0.018c-0.098 0-0.214 0-0.329 0-163.098 0-295.314-132.217-295.314-295.314 0-0.116 0-0.232 0-0.347v0.018-2.523h15.104c21.394 0 37.742-16.347 37.742-37.742v-333.385c0-21.394-16.347-37.742-37.742-37.742h-93.074c-0.043 0-0.095 0-0.146 0-65.239 0-118.126 52.887-118.126 118.126 0 0.051 0 0.103 0 0.154v-0.008 172.361c0 0.033 0 0.071 0 0.11 0 65.239 52.887 118.126 118.126 118.126 0.051 0 0.103 0 0.154 0h2.479v2.523c0 205.056 166.071 371.127 371.127 371.127 205.093 0 371.127-166.034 371.127-371.127v-2.523h2.56c0.022 0 0.047 0 0.073 0 65.239 0 118.126-52.887 118.126-118.126 0-0.039 0-0.077 0-0.116v0.006zM191.89 510.903h-55.333c-0.109 0.001-0.238 0.002-0.367 0.002-23.429 0-42.423-18.993-42.423-42.423 0-0.129 0.001-0.258 0.002-0.387v0.020-172.361c0-23.918 18.871-42.789 42.789-42.789h55.333zM926.61 468.114c0.001 0.109 0.002 0.238 0.002 0.367 0 23.429-18.993 42.423-42.423 42.423-0.129 0-0.258-0.001-0.387-0.002h-55.313v-257.938h55.333c0.109-0.001 0.238-0.002 0.367-0.002 23.429 0 42.423 18.993 42.423 42.423 0 0.129-0.001 0.258-0.002 0.387v-0.020z" />
<glyph unicode="&#xe905;" glyph-name="icon-6" d="M70.437-51.493c-11.337 0-22.638 5.047-30.171 13.861-4.996 6.302-8.014 14.368-8.014 23.139 0 5.274 1.091 10.294 3.061 14.845l-0.093-0.242 67.95 158.501c-28.928 36.498-51.566 78.007-69.193 122.039-21.503 53.581-33.975 115.697-33.975 180.726 0 0.158 0 0.316 0 0.474v-0.025c0 275.456 222.683 498.176 496.933 498.176 274.286 0 496.933-222.683 496.933-496.933 0-274.286-222.683-496.933-496.933-496.933-56.613 0-111.982 8.777-163.547 27.685l-256.658-45.275h-6.29zM496.933 884.517c-232.741 0-421.449-188.709-421.449-421.449 0-52.846 10.057-104.411 28.928-153.49 17.627-44.032 41.509-84.297 71.717-118.235 10.057-11.337 11.337-26.441 6.29-39.022l-50.322-116.992 198.766 35.218c6.29 1.28 13.861 0 20.114-2.523 45.312-17.591 94.354-26.405 145.957-26.405 232.741 0 421.449 188.709 421.449 421.449s-188.709 421.449-421.449 421.449zM673.061 265.545h-352.256c-0.198-0.004-0.431-0.006-0.664-0.006-20.481 0-37.083 16.603-37.083 37.083 0 0.234 0.002 0.467 0.006 0.699l-0.001-0.035c0 21.394 16.347 37.742 37.742 37.742h352.256c21.394 0 37.742-16.347 37.742-37.742s-16.347-37.742-37.742-37.742zM673.061 416.512h-352.256c-0.198-0.004-0.431-0.006-0.664-0.006-20.481 0-37.083 16.603-37.083 37.083 0 0.234 0.002 0.467 0.006 0.699l-0.001-0.035c0 21.394 16.347 37.742 37.742 37.742h352.256c21.394 0 37.742-16.347 37.742-37.742s-16.347-37.742-37.742-37.742zM673.061 567.479h-352.256c-0.198-0.004-0.431-0.006-0.665-0.006-20.481 0-37.083 16.603-37.083 37.083 0 0.246 0.002 0.492 0.007 0.738l-0.001-0.037c0 21.394 16.347 37.742 37.742 37.742h352.256c21.394 0 37.742-16.347 37.742-37.742s-16.347-37.742-37.742-37.742z" />
<glyph unicode="&#xe906;" glyph-name="icon-7" d="M963.789 15.749h-178.995c-0.209-0.004-0.456-0.006-0.703-0.006-22.938 0-41.533 18.595-41.533 41.533 0 0.261 0.002 0.522 0.007 0.782l-0.001-0.039v526.991c0 23.962 18.309 42.271 42.271 42.271h178.954c23.921 0 42.271-18.309 42.271-42.271v-526.991c0-23.962-18.35-42.271-42.271-42.271zM827.105 100.291h94.413v442.45h-94.413zM221.184 15.749h-178.913c-0.222-0.004-0.483-0.007-0.745-0.007-22.938 0-41.533 18.595-41.533 41.533 0 0.276 0.003 0.551 0.008 0.826l-0.001-0.041v426.885c0 23.962 18.309 42.271 42.271 42.271h178.954c23.962 0 42.271-18.309 42.271-42.271v-426.885c0-23.962-18.309-42.271-42.271-42.271zM84.5 100.291h94.413v342.426h-94.372zM593.142 17.142h-178.913c-0.222-0.004-0.483-0.007-0.745-0.007-22.938 0-41.533 18.595-41.533 41.533 0 0.276 0.003 0.551 0.008 0.826l-0.001-0.041v776.356c0.041 23.962 18.35 42.271 42.312 42.271h178.913c23.962 0 42.271-18.309 42.271-42.271v-776.356c0-23.962-18.309-42.271-42.271-42.271zM456.499 101.724h94.372v691.814h-94.372z" />
<glyph unicode="&#xe907;" glyph-name="icon-8" d="M512.239 816.879l375.74-205.483-375.74-205.483-375.706 205.483zM213.948 324.881l281.873-153.805c4.268-2.964 9.558-4.735 15.263-4.735 0.406 0 0.811 0.009 1.213 0.027l-0.057-0.002c0.354-0.017 0.77-0.026 1.188-0.026 5.705 0 10.996 1.772 15.354 4.795l-0.089-0.058 282.556 154.965 77.926-43.418-376.934-205.483-376.9 205.483zM214.528 488.96l281.259-153.498c4.268-2.965 9.56-4.737 15.265-4.737 0.418 0 0.833 0.009 1.246 0.028l-0.059-0.002c0.354-0.017 0.77-0.026 1.188-0.026 5.705 0 10.996 1.772 15.354 4.795l-0.089-0.058 282.522 153.771 76.8-42.223-375.774-205.483-375.706 205.483zM528.725 6.656l450.901 246.579c11.217 5.673 18.774 17.111 18.774 30.314 0 0.071 0 0.142-0.001 0.212v-0.011c0.001 0.070 0.001 0.153 0.001 0.236 0 13.203-7.557 24.641-18.581 30.225l-0.193 0.089-94.583 52.122 93.389 51.2c11.217 5.673 18.774 17.111 18.774 30.314 0 0.071 0 0.142-0.001 0.212v-0.011c0.001 0.070 0.001 0.153 0.001 0.236 0 13.203-7.557 24.641-18.581 30.225l-0.193 0.089-93.047 50.859 94.208 51.302c11.217 5.673 18.774 17.111 18.774 30.314 0 0.071 0 0.142-0.001 0.212v-0.011c0 0.060 0.001 0.131 0.001 0.202 0 13.203-7.557 24.641-18.581 30.225l-0.193 0.089-449.741 245.453c-4.905 2.767-10.77 4.397-17.015 4.397s-12.11-1.63-17.192-4.488l0.176 0.091-449.741-245.419c-11.217-5.673-18.774-17.111-18.774-30.314 0-0.071 0-0.142 0.001-0.212v0.011c0-12.902 7.031-24.644 18.773-30.515l94.583-51.61-94.549-51.746c-11.236-5.667-18.808-17.114-18.808-30.331 0-0.065 0-0.13 0.001-0.195v0.010c0-12.902 7.031-24.644 18.773-30.515l94.208-51.405-94.208-51.951c-11.217-5.673-18.774-17.111-18.774-30.314 0-0.071 0-0.142 0.001-0.212v0.011c0-12.902 7.031-24.644 18.773-30.515l449.741-245.419c4.268-2.964 9.558-4.735 15.263-4.735 0.406 0 0.811 0.009 1.213 0.027l-0.057-0.002c0.354-0.017 0.77-0.026 1.188-0.026 5.705 0 10.996 1.772 15.354 4.795l-0.089-0.058z" />
<glyph unicode="&#xe908;" glyph-name="icon-9" d="M230.254 549.449l-45.312-430.263c-2.487-18.871 5.047-39.022 17.627-52.846 13.824-15.104 31.451-22.674 51.566-22.674h513.317c20.114 0 37.742 7.57 50.322 22.674 13.824 15.104 20.114 33.975 17.591 54.126l-44.032 430.226h-561.079zM300.69 718.043c0 119.511 96.883 216.393 216.393 216.393s216.393-96.883 216.393-216.393v0-93.111h91.794c18.907 0 35.255-15.104 37.778-34.011l47.799-464.201c3.767-41.509-8.777-83.017-36.462-113.225-27.685-28.891-66.706-46.555-106.935-46.555h-513.317c-40.229 0-79.25 17.627-106.935 47.835-27.648 30.171-41.509 71.68-36.462 111.945l47.799 464.274c2.523 18.871 17.627 33.975 37.742 33.975h104.411zM657.993 718.043c0 0.065 0 0.142 0 0.22 0 77.681-62.973 140.654-140.654 140.654-0.090 0-0.18 0-0.27 0h0.014c-0.076 0-0.166 0-0.256 0-77.681 0-140.654-62.973-140.654-140.654 0-0.090 0-0.18 0-0.27v0.014-93.074h281.819z" />
<glyph unicode="&#xe909;" glyph-name="icon-10" d="M506.039 879.799l318.464-169.838v-241.554c1.28-183.662-108.251-348.489-279.442-418.926l-40.265-16.347-32.731 13.824c-162.799 71.517-274.432 231.343-274.432 417.242 0 0.155 0 0.309 0 0.464v-0.024 245.321zM520.96-43.63l55.333 22.674c198.802 83.017 325.851 275.493 324.608 489.362v264.192c0.001 0.075 0.001 0.164 0.001 0.252 0 14.146-8.096 26.401-19.908 32.384l-0.207 0.095-356.096 189.915c-5.26 2.971-11.55 4.721-18.249 4.721s-12.989-1.75-18.438-4.819l0.189 0.098-345.929-189.915c-12.019-6.078-20.115-18.333-20.115-32.479 0-0.089 0-0.177 0.001-0.266v0.014-267.959c0-212.626 124.562-403.822 319.561-488.119l47.799-20.114c5.010-1.28 10.057-2.56 15.104-2.56 5.010 0 10.057 1.28 16.347 2.56z" />
<glyph unicode="&#xe90a;" glyph-name="icon-11" d="M166.839 398.811c-42.789 0-76.727-33.975-76.727-76.727 0-42.789 33.975-76.727 76.727-76.727 42.789 0 76.763 33.938 76.763 76.727s-33.975 76.727-76.763 76.727zM166.839-20.114c-0.198-0.004-0.431-0.006-0.664-0.006-20.481 0-37.083 16.603-37.083 37.083 0 0.234 0.002 0.467 0.006 0.699l-0.001-0.035v156.891c-66.315 17.295-114.469 76.653-114.469 147.258 0 0.121 0 0.242 0 0.363v-0.019c0 0.080 0 0.176 0 0.271 0 70.605 48.154 129.963 113.411 147.023l1.057 0.235v416.037c0 21.394 16.384 37.742 37.742 37.742 21.394 0 37.742-16.347 37.742-37.742v-416.073c66.315-17.295 114.469-76.653 114.469-147.258 0-0.095 0-0.191 0-0.286v0.015c0-0.091 0-0.199 0-0.308 0-70.605-48.154-129.963-113.411-147.023l-1.058-0.235v-156.891c0-21.394-16.347-37.742-37.742-37.742zM856.283 398.811c-42.789 0-76.763-33.975-76.763-76.727 0-42.789 33.975-76.727 76.763-76.727s76.727 33.938 76.727 76.727-33.975 76.727-76.727 76.727zM856.283-20.114c-0.198-0.004-0.431-0.006-0.664-0.006-20.481 0-37.083 16.603-37.083 37.083 0 0.234 0.002 0.467 0.006 0.699l-0.001-0.035v156.891c-66.315 17.295-114.469 76.653-114.469 147.258 0 0.108 0 0.216 0 0.324v-0.017c0 0.080 0 0.176 0 0.271 0 70.605 48.154 129.963 113.411 147.023l1.057 0.235v416.073c0 21.394 16.347 37.742 37.742 37.742 21.358 0 37.705-16.347 37.705-37.742v-416.073c66.315-17.295 114.469-76.653 114.469-147.258 0-0.095 0-0.191 0-0.286v0.015c0-0.091 0-0.199 0-0.308 0-70.605-48.154-129.963-113.411-147.023l-1.058-0.235v-156.891c0-21.394-16.347-37.742-37.705-37.742zM511.561 657.993h-0.146c-0.098 0-0.215 0.001-0.331 0.001-42.113 0-76.251-34.139-76.251-76.251 0-0.18 0.001-0.36 0.002-0.54v0.028c0-42.789 33.938-76.727 76.727-76.727s76.727 33.975 76.727 76.727c0.001 0.152 0.002 0.332 0.002 0.513 0 42.113-34.139 76.251-76.251 76.251-0.116 0-0.233 0-0.349-0.001h-0.128zM511.561-20.114c-0.198-0.004-0.431-0.006-0.664-0.006-20.481 0-37.083 16.603-37.083 37.083 0 0.234 0.002 0.467 0.006 0.699l-0.001-0.035v416.073c-66.315 17.295-114.469 76.653-114.469 147.258 0 0.095 0 0.191 0 0.286v-0.015c0 0.091 0 0.199 0 0.308 0 70.605 48.154 129.963 113.411 147.023l1.058 0.235v156.891c0 21.394 16.347 37.742 37.742 37.742s37.742-16.347 37.742-37.742v-156.891c66.315-17.295 114.469-76.653 114.469-147.258 0-0.108 0-0.216 0-0.324v0.017c0-0.080 0-0.176 0-0.271 0-70.605-48.154-129.963-113.411-147.023l-1.057-0.235v-416.073c0-21.394-16.347-37.742-37.742-37.742z" />
<glyph unicode="&#xe90b;" glyph-name="icon-check" d="M674.771 567.229c9.394-9.572 9.394-24.954-0.2-34.549l-205.112-203.91c-4.41-4.445-10.521-7.196-17.274-7.196s-12.865 2.752-17.273 7.195l-0.002 0.002-85.704 86.283c-4.33 4.42-7.003 10.479-7.003 17.162 0 6.794 2.762 12.943 7.225 17.386l0.001 0.001c4.42 4.33 10.479 7.003 17.162 7.003 6.794 0 12.943-2.762 17.386-7.225l68.498-68.898 187.748 186.769c9.572 9.572 24.977 9.572 34.549 0zM1001.739 448c0-270.024-219.715-489.739-489.739-489.739s-489.739 219.715-489.739 489.739 219.715 489.739 489.739 489.739 489.739-219.715 489.739-489.739zM952.81 448c0 243.089-197.743 440.81-440.81 440.81-243.089 0-440.81-197.743-440.81-440.81 0-243.089 197.743-440.81 440.81-440.81 243.089 0 440.81 197.743 440.81 440.81z" />
<glyph unicode="&#xe90c;" glyph-name="icon-logic" d="M1021.673 326.609l-50.967-132.073c-5.215-13.126-17.808-22.237-32.528-22.237-0.322 0-0.642 0.004-0.962 0.013l0.047-0.001-60.044 1.769c-21.832-29.481-46.3-55.109-73.595-77.407l-0.761-0.603 4.422-60.23c0.060-0.762 0.093-1.65 0.093-2.547 0-14.147-8.454-26.318-20.586-31.739l-0.221-0.088-129.745-56.762c-4.101-1.844-8.89-2.919-13.929-2.919-9.853 0-18.747 4.107-25.064 10.702l-0.012 0.013-41.798 43.59c-35.421-5.027-71.447-5.958-107.52-2.746l-39.075-45.289c-6.409-7.412-15.825-12.073-26.33-12.073-4.492 0-8.784 0.852-12.725 2.404l0.236-0.082-132.049 50.967c-13.122 5.164-22.241 17.726-22.241 32.418 0 0.361 0.005 0.72 0.016 1.078l-0.001-0.052 1.769 60.044c-29.486 21.843-55.121 46.318-77.43 73.618l-0.603 0.762-60.207-4.445c-0.744-0.057-1.611-0.089-2.486-0.089-14.174 0-26.373 8.459-31.823 20.604l-0.089 0.221-56.785 129.745c-1.834 4.094-2.902 8.873-2.902 13.902 0 9.852 4.1 18.746 10.687 25.069l0.012 0.011 43.59 41.821c-2.937 19.731-4.615 42.505-4.615 65.671 0 14.734 0.679 29.309 2.006 43.696l-0.138-1.846-45.265 39.075c-7.399 6.412-12.052 15.823-12.052 26.321 0 4.495 0.853 8.79 2.406 12.733l-0.082-0.236 50.967 132.049c5.306 13.731 18.455 22.784 33.443 22.225l60.044-1.769c21.837 29.476 46.305 55.104 73.595 77.407l0.761 0.603-4.422 60.23c-0.060 0.765-0.094 1.655-0.094 2.554 0 14.151 8.454 26.327 20.586 31.755l0.221 0.088 129.769 56.762c4.102 1.84 8.89 2.912 13.929 2.912 9.859 0 18.76-4.104 25.088-10.696l0.011-0.012 41.798-43.59c19.758 2.949 42.561 4.633 65.757 4.633 14.703 0 29.248-0.677 43.606-2l-1.843 0.137 39.052 45.265c6.404 7.404 15.812 12.060 26.308 12.060 4.5 0 8.8-0.856 12.747-2.414l-0.235 0.082 132.049-50.967c13.754-5.306 22.644-18.711 22.225-33.443l-1.769-60.044c29.49-21.831 55.125-46.299 77.431-73.595l0.603-0.761 60.207 4.422c14.569 1.164 28.463-7.215 34.374-20.713l56.762-129.745c1.843-4.103 2.916-8.893 2.916-13.934 0-9.847-4.096-18.737-10.678-25.060l-0.012-0.011-43.59-41.821c5.027-35.375 5.935-71.424 2.746-107.52l45.265-39.052c11.124-9.588 15.011-25.135 9.728-38.819zM948.015 328.774l-40.541 34.979c-7.402 6.408-12.056 15.818-12.056 26.315 0 1.553 0.102 3.082 0.299 4.581l-0.019-0.176c2.132 15.529 3.35 33.475 3.35 51.705 0 25.441-2.371 50.328-6.903 74.453l0.388-2.487c-2.118 11.497 1.676 23.273 10.124 31.372l39.261 37.655-37.19 84.969-54.249-3.956c-0.816-0.069-1.766-0.108-2.725-0.108-11.338 0-21.397 5.478-27.673 13.933l-0.066 0.092c-24.699 33.152-54.043 61.163-87.405 83.676l-1.265 0.804c-9.38 6.326-15.468 16.912-15.468 28.92 0 0.355 0.005 0.708 0.016 1.060l-0.001-0.052 1.583 54.179-86.272 33.303-34.979-40.541c-7.587-8.797-19.084-13.265-30.72-11.753-15.507 2.126-33.427 3.34-51.631 3.34-25.467 0-50.38-2.376-74.528-6.917l2.488 0.389c-11.497-2.141-23.273 1.699-31.372 10.124l-37.632 39.261-84.969-37.167 3.98-54.249c0.060-0.766 0.094-1.659 0.094-2.56 0-11.395-5.489-21.508-13.967-27.839l-0.091-0.065c-33.145-24.696-61.15-54.041-83.652-87.403l-0.805-1.266c-6.305-9.38-16.877-15.469-28.871-15.469-0.372 0-0.743 0.006-1.112 0.017l0.054-0.001-54.179 1.606-33.28-86.295 40.518-34.979c8.844-7.633 13.265-19.177 11.776-30.72-2.129-15.526-3.345-33.469-3.345-51.695 0-25.444 2.369-50.335 6.898-74.465l-0.388 2.488c2.118-11.497-1.676-23.273-10.124-31.372l-39.261-37.655 37.19-84.992 54.249 4.003c0.749 0.057 1.623 0.090 2.504 0.090 11.411 0 21.54-5.486 27.895-13.963l0.065-0.090c24.701-33.149 54.045-61.161 87.404-83.675l1.265-0.805c9.961-6.609 15.825-17.943 15.453-29.905l-1.583-54.202 86.272-33.28 34.979 40.541c7.61 8.844 19.2 13.265 30.72 11.776 41.658-5.353 83.247-4.282 123.648 3.165 11.543 2.118 23.273-1.699 31.395-10.124l37.655-39.261 84.992 37.19-4.003 54.225c-0.061 0.769-0.095 1.666-0.095 2.571 0 11.399 5.489 21.515 13.968 27.851l0.091 0.065c33.14 24.702 61.143 54.046 83.652 87.403l0.805 1.266c6.28 9.379 16.833 15.471 28.81 15.471 0.393 0 0.785-0.007 1.176-0.020l-0.057 0.002 54.179-1.606zM761.041 447.977c0-137.309-111.709-249.041-249.041-249.041-137.309 0-249.041 111.709-249.041 249.041 0 137.309 111.709 249.065 249.041 249.065 137.309 0 249.041-111.732 249.041-249.065zM691.549 447.977c0 99.002-80.524 179.549-179.549 179.549-99.002 0-179.549-80.524-179.549-179.549 0-99.002 80.524-179.549 179.549-179.549 99.002 0 179.549 80.547 179.549 179.549z" />
<glyph unicode="&#xe90d;" glyph-name="icon-order" d="M512-63.767c-6.982 0-13.894 1.629-20.131 4.794l-466.851 233.425c-14.885 7.588-24.902 22.802-24.902 40.355 0 24.935 20.214 45.149 45.149 45.149 7.382 0 14.35-1.772 20.503-4.913l-0.256 0.118 446.487-222.697 446.487 223.139c5.897 3.023 12.865 4.795 20.247 4.795 24.935 0 45.149-20.214 45.149-45.149 0-17.553-10.017-32.767-24.647-40.236l-0.256-0.118-466.851-233.868c-5.86-3.021-12.786-4.799-20.125-4.817h-0.006zM512 169.635c-6.982 0-13.894 1.652-20.131 4.817l-466.851 233.193c-14.891 7.589-24.913 22.807-24.913 40.367 0 24.941 20.219 45.16 45.16 45.16 7.382 0 14.35-1.771 20.503-4.912l-0.256 0.118 446.487-223.139 446.487 223.348c5.897 3.022 12.865 4.793 20.247 4.793 24.941 0 45.16-20.219 45.16-45.16 0-17.559-10.021-32.778-24.657-40.248l-0.256-0.118-466.851-233.425c-5.861-3.013-12.788-4.784-20.128-4.794h-0.003zM512 403.060c-6.982 0-13.894 1.652-20.131 4.794l-466.851 233.193c-14.972 7.533-25.065 22.777-25.065 40.378s10.093 32.845 24.806 40.26l0.258 0.118 466.874 233.402c5.897 3.023 12.865 4.795 20.247 4.795s14.35-1.772 20.503-4.913l-0.256 0.118 466.618-233.425c14.972-7.533 25.065-22.777 25.065-40.378s-10.093-32.845-24.806-40.26l-0.258-0.118-466.851-233.402c-5.788-2.893-12.609-4.586-19.826-4.586-0.107 0-0.215 0-0.322 0.001h0.016zM146.223 681.542l365.777-182.9 365.777 182.9-365.777 182.225z" />
<glyph unicode="&#xe90e;" glyph-name="icon-parametr" d="M563.2 70.4c-0.040 31.796-25.804 57.56-57.596 57.6h-0.004c-31.796-0.040-57.56-25.804-57.6-57.596v-0.004c0.040-31.796 25.804-57.56 57.596-57.6h0.004c31.796 0.040 57.56 25.804 57.6 57.596v0.004zM947.2 70.4c-0.040 31.796-25.804 57.56-57.596 57.6h-0.004c-31.796-0.040-57.56-25.804-57.6-57.596v-0.004c0.040-31.796 25.804-57.56 57.596-57.6h0.004c31.796 0.040 57.56 25.804 57.6 57.596v0.004zM268.8 70.4c-0.079-74.195-60.205-134.32-134.392-134.4h-0.008c-74.195 0.079-134.32 60.205-134.4 134.392v0.008c0.079 74.195 60.205 134.32 134.392 134.4h0.008c74.195-0.079 134.32-60.205 134.4-134.392v-0.008zM192 70.4c-0.040 31.796-25.804 57.56-57.596 57.6h-0.004c-31.796-0.040-57.56-25.804-57.6-57.596v-0.004c0.040-31.796 25.804-57.56 57.596-57.6h0.004c31.796 0.040 57.56 25.804 57.6 57.596v0.004zM563.2 454.4c-0.040 31.796-25.804 57.56-57.596 57.6h-0.004c-31.796-0.040-57.56-25.804-57.6-57.596v-0.004c0.040-31.796 25.804-57.56 57.596-57.6h0.004c31.796 0.040 57.56 25.804 57.6 57.596v0.004zM947.2 454.4c-0.040 31.796-25.804 57.56-57.596 57.6h-0.004c-31.796-0.040-57.56-25.804-57.6-57.596v-0.004c0.040-31.796 25.804-57.56 57.596-57.6h0.004c31.796 0.040 57.56 25.804 57.6 57.596v0.004zM192 454.4c-0.040 31.796-25.804 57.56-57.596 57.6h-0.004c-31.796-0.040-57.56-25.804-57.6-57.596v-0.004c0.040-31.796 25.804-57.56 57.596-57.6h0.004c31.796 0.040 57.56 25.804 57.6 57.596v0.004zM640 825.6c0-20.806-4.748-40.495-13.219-58.112l195.654-196.701c19.208 11.324 42.32 18.013 66.993 18.013 0.060 0 0.121 0 0.181 0h-0.009c74.195-0.079 134.32-60.205 134.4-134.392v-0.008c0-58.415-37.469-108.218-89.6-126.72v-130.56c52.607-19.066 89.53-68.572 89.6-126.711v-0.009c-0.079-74.195-60.205-134.32-134.392-134.4h-0.008c-74.195 0.079-134.32 60.205-134.4 134.392v0.008c0.076 62.847 43.202 115.601 101.47 130.36l0.93 0.2v122.88c-59.198 14.959-102.324 67.713-102.4 130.551v0.009c0 21.783 5.213 42.356 14.429 60.556l-194.56 195.631c-19.752-12.174-43.688-19.386-69.308-19.386-0.057 0-0.113 0-0.17 0h0.009c-74.195 0.079-134.32 60.205-134.4 134.392v0.008c0.079 74.195 60.205 134.32 134.392 134.4h0.008c74.195-0.079 134.32-60.205 134.4-134.392v-0.008zM563.2 825.6c-0.040 31.796-25.804 57.56-57.596 57.6h-0.004c-31.796-0.040-57.56-25.804-57.6-57.596v-0.004c0.040-31.796 25.804-57.56 57.596-57.6h0.004c31.796 0.040 57.56 25.804 57.6 57.596v0.004zM1024 825.6c-0.079-74.195-60.205-134.32-134.392-134.4h-0.008c-74.195 0.079-134.32 60.205-134.4 134.392v0.008c0.079 74.195 60.205 134.32 134.392 134.4h0.008c74.195-0.079 134.32-60.205 134.4-134.392v-0.008zM947.2 825.6c-0.040 31.796-25.804 57.56-57.596 57.6h-0.004c-31.796-0.040-57.56-25.804-57.6-57.596v-0.004c0.040-31.796 25.804-57.56 57.596-57.6h0.004c31.796 0.040 57.56 25.804 57.6 57.596v0.004zM268.8 825.6c-0.076-62.847-43.202-115.601-101.47-130.36l-0.93-0.2v-110.080c59.198-14.959 102.324-67.713 102.4-130.551v-0.009c0-36.585-14.708-69.818-38.493-94.068l187.881-187.904c15.351 13.254 33.979 23.155 54.486 28.334l0.926 0.198v122.88c-59.198 14.959-102.324 67.713-102.4 130.551v0.009c0.079 74.195 60.205 134.32 134.392 134.4h0.008c74.195-0.079 134.32-60.205 134.4-134.392v-0.008c0-58.415-37.469-108.218-89.6-126.72v-130.56c52.607-19.066 89.53-68.572 89.6-126.711v-0.009c-0.079-74.195-60.205-134.32-134.392-134.4h-0.008c-74.232 0.096-134.371 60.294-134.371 134.54 0 12.628 1.74 24.849 4.993 36.438l-0.227-0.947-216.343 216.343c-7.55-1.504-16.23-2.364-25.111-2.364-74.252 0-134.455 60.15-134.54 134.382v0.008c0 58.415 37.469 108.218 89.6 126.72v117.76c-52.607 19.066-89.53 68.572-89.6 126.711v0.009c0.079 74.195 60.205 134.32 134.392 134.4h0.008c74.195-0.079 134.32-60.205 134.4-134.392v-0.008zM192 825.6c-0.040 31.796-25.804 57.56-57.596 57.6h-0.004c-31.796-0.040-57.56-25.804-57.6-57.596v-0.004c0.040-31.796 25.804-57.56 57.596-57.6h0.004c31.796 0.040 57.56 25.804 57.6 57.596v0.004z" />
<glyph unicode="&#xe90f;" glyph-name="icon-rocket" d="M313.455 0.067l123.993 124.038c4.418 4.454 10.541 7.211 17.308 7.211s12.89-2.757 17.306-7.21l0.002-0.002c4.449-4.421 7.202-10.543 7.202-17.308s-2.753-12.887-7.201-17.307l-123.994-124.016c-4.415-4.455-10.535-7.213-17.3-7.213-0.038 0-0.076 0-0.114 0h0.006c-6.411 0-12.6 2.404-17.408 7.213-4.42 4.389-7.156 10.469-7.156 17.188 0 6.828 2.826 12.997 7.372 17.4l0.006 0.006zM153.667 407.797c4.417 4.447 10.535 7.2 17.297 7.2s12.88-2.753 17.295-7.199l0.001-0.001c4.449-4.421 7.202-10.543 7.202-17.308s-2.753-12.887-7.201-17.307l-123.994-124.039c-4.415-4.455-10.535-7.213-17.3-7.213-0.038 0-0.076 0-0.114 0h0.006c-6.389 0-12.6 2.404-17.408 7.213-4.449 4.421-7.202 10.543-7.202 17.308s2.753 12.887 7.201 17.307l0.001 0.001zM424.648 360.582c4.449-4.421 7.202-10.543 7.202-17.308s-2.753-12.887-7.201-17.307l-342.596-342.907c-4.413-4.441-10.524-7.191-17.278-7.191-0.038 0-0.076 0-0.114 0h0.006c-6.411 0-12.6 2.404-17.408 7.19-4.449 4.421-7.202 10.543-7.202 17.308s2.753 12.887 7.201 17.307l342.796 342.907c4.417 4.447 10.535 7.2 17.297 7.2s12.88-2.753 17.295-7.199l0.001-0.001zM996.441 842.685l-256.2-623.349c-10.277-25.185-34.579-42.61-62.951-42.61-0.228 0-0.455 0.001-0.683 0.003h0.035c-0.181-0.002-0.394-0.003-0.608-0.003-29.913 0-55.316 19.306-64.43 46.138l-0.141 0.479-82.588 241.464-241.419 82.432c-26.788 9.122-45.853 33.74-46.59 62.912l-0.002 0.086c-0.029 0.747-0.046 1.624-0.046 2.505 0 28.476 17.416 52.884 42.178 63.154l0.453 0.167 623.193 256.267c7.787 3.403 16.86 5.391 26.395 5.409h0.007c22.795 0 44.010-11.398 56.988-30.809 13.023-19.211 15.226-42.607 6.411-64.223zM949.448 879.505c-3.514 5.474-9.527 9.078-16.389 9.194h-0.017c-2.821-0.055-5.491-0.639-7.935-1.656l0.144 0.053-623.193-256.245c-11.798-5.009-12.199-15.805-12.199-19.011 0.2-3.183 1.402-14.002 13.401-18.209l252.794-86.417c7.19-2.404 12.8-8.014 15.204-15.204l86.372-252.883c4.23-12.399 15.427-13.379 18.81-13.379 4.007 0 13.601 1.18 18.209 12.199l256.401 623.371c1.075 2.261 1.702 4.914 1.702 7.713 0 3.93-1.237 7.571-3.344 10.554l0.039-0.058z" />
<glyph unicode="&#xe910;" glyph-name="icon-stop" horiz-adv-x="779" d="M75.019 498.643h625.152v-487.624h-625.152zM425.094 173.568v87.507c0 21.259-16.25 37.51-37.51 37.51-21.237 0-37.487-16.25-37.487-37.51v-87.507c0-21.259 16.25-37.51 37.487-37.51 21.259 0 37.51 16.25 37.51 37.51zM600.153 573.663h-537.645c-0.18 0.002-0.392 0.003-0.604 0.003-34.191 0-61.907-27.717-61.907-61.907 0-0.22 0.001-0.44 0.003-0.66v0.033-512.623c-0.002-0.186-0.003-0.406-0.003-0.626 0-34.178 27.707-61.885 61.885-61.885 0.22 0 0.44 0.001 0.66 0.003h650.139c0.18-0.002 0.392-0.003 0.604-0.003 34.191 0 61.907 27.717 61.907 61.907 0 0.212-0.001 0.424-0.003 0.636v-0.032 512.623c0.002 0.186 0.003 0.406 0.003 0.626 0 34.191-27.717 61.907-61.907 61.907-0.212 0-0.425-0.001-0.637-0.003h-37.478v92.494c0 160.056-130.048 292.597-290.059 293.843-108.811 0-210.098-62.509-257.603-160.056-10.017-18.744-2.493-41.249 16.25-49.998 18.766-10.017 41.272-2.493 50.020 16.25 36.263 72.526 111.282 118.784 191.288 118.784 118.784-1.247 215.040-98.771 215.040-218.824z" />
<glyph unicode="&#xe911;" glyph-name="icon-trades" d="M337.987-61.507c-23.775 0-45.056 8.771-62.575 26.29l-249.144 250.368c-16.091 16.010-26.1 38.119-26.268 62.566v0.032c0 23.797 8.771 45.078 26.268 62.598l235.364 231.58c15.026 15.026 38.801 15.026 52.58 0 15.026-15.026 15.026-38.801 0-52.58l-234.095-232.849c-3.762-3.74-3.762-6.233-3.762-8.749 0-2.493 1.269-6.255 3.784-8.771l249.099-250.368c3.74-3.74 6.233-3.74 8.749-3.74 3.418 0.15 6.483 1.547 8.776 3.744l-0.005-0.005 232.849 234.095c15.026 15.026 38.801 15.026 52.58 0 15.004-15.004 15.004-38.801 0-52.58l-231.602-235.342c-16.25-17.519-38.801-26.268-62.598-26.268zM736.078 316.55c-10.017 0-18.766 3.762-26.268 11.264-15.048 15.026-15.048 38.823 0 52.58l234.051 232.849c3.762 3.762 3.762 6.255 3.762 8.771-0.162 3.413-1.566 6.469-3.766 8.753l0.004-0.004-249.077 250.368c-3.784 3.762-6.278 3.762-8.771 3.762-3.421-0.156-6.486-1.561-8.775-3.766l-234.091-234.091c-15.026-15.004-38.801-15.004-52.58 0-15.026 15.026-15.026 38.823 0 52.58l232.849 234.118c16.009 16.093 38.118 26.103 62.566 26.268h0.031c23.775 0 45.056-8.771 62.575-26.268l249.144-249.166c16.082-15.998 26.090-38.090 26.268-62.519v-0.034c0-23.797-8.771-45.078-26.268-62.598l-235.386-231.58c-7.502-7.524-16.273-11.286-26.268-11.286zM347.982 247.697c-10.017 0-18.766 3.784-26.268 11.286-15.004 15.004-15.004 38.801 0 52.558l327.814 327.992c15.004 15.026 38.778 15.026 52.536 0 15.026-15.026 15.026-38.801 0-52.58l-327.791-327.947c-7.524-7.524-16.273-11.286-26.268-11.286z" />
<glyph unicode="&#xe912;" glyph-name="icon-trans" d="M1024 921.722v-799.378c0-0.007 0-0.016 0-0.024 0-99.091-80.329-179.419-179.419-179.419-0.009 0-0.017 0-0.026 0h-671.377c-96.622 3.755-173.178 82.822-173.178 179.444v91.624c0 21.333 16.335 37.644 37.644 37.644h128v670.11c0 13.8 8.777 27.599 22.601 33.89 4.512 2.153 9.807 3.411 15.395 3.411 9.571 0 18.28-3.689 24.784-9.722l-0.023 0.021 105.399-92.843 105.423 94.11c13.8 12.556 36.376 12.556 50.2 0l105.399-94.11 105.423 94.11c13.8 12.556 36.376 12.556 50.176 0l105.423-94.11 105.423 92.867c6.478 6.002 15.181 9.685 24.743 9.685 5.595 0 10.896-1.261 15.633-3.513l-0.221 0.094c13.8-5.022 22.577-18.822 22.577-33.89zM179.444 18.188h519.558c-21.173 28.624-33.89 64.62-33.89 103.586 0 0.2 0 0.4 0.001 0.6v-0.031 53.979h-589.848v-53.979c0-0.080 0-0.174 0-0.269 0-57.375 46.512-103.887 103.887-103.887 0.094 0 0.189 0 0.283 0h-0.015zM948.712 122.344v715.313l-67.779-60.245c-15.043-12.556-36.376-12.556-50.176 0l-105.423 94.11-105.399-94.11c-13.824-12.556-36.401-12.556-50.225 0l-105.399 94.11-105.399-94.11c-13.824-12.556-36.401-12.556-50.225 0l-67.755 60.221v-586.021h461.824c21.333 0 37.644-16.335 37.644-37.644v-91.624c0-0.072 0-0.158 0-0.244 0-57.389 46.523-103.912 103.912-103.912 0.086 0 0.172 0 0.257 0h-0.013c0.072 0 0.158 0 0.244 0 57.389 0 103.912 46.523 103.912 103.912 0 0.086 0 0.172 0 0.257v-0.013zM799.378 373.321h-407.845c-21.333 0-37.644 16.335-37.644 37.669 0 21.309 16.311 37.644 37.644 37.644h407.845c21.333 0 37.644-16.335 37.644-37.644 0-21.333-16.335-37.669-37.644-37.669zM623.689 549.010h-232.155c-21.333 0-37.644 16.335-37.644 37.644 0 21.333 16.311 37.669 37.644 37.669h232.155c21.333 0 37.644-16.335 37.644-37.669 0-21.309-16.335-37.644-37.644-37.644z" />
<glyph unicode="&#xe913;" glyph-name="part-1" d="M455.111 618.667c0 31.419 25.47 56.889 56.889 56.889s56.889-25.47 56.889-56.889v0-171.577l104.562-104.562c9.881-10.22 15.969-24.16 15.969-39.521 0-31.419-25.47-56.889-56.889-56.889-15.362 0-29.301 6.089-39.537 15.985l0.016-0.015-120.718 120.718c-9.177 9.156-15.23 21.439-16.426 35.114l-0.015 0.214c-0.47 2.13-0.74 4.576-0.74 7.085 0 0.009 0 0.019 0 0.028v-0.001zM512 960c282.77 0 512-229.23 512-512s-229.23-512-512-512v0c-282.77 0-512 229.23-512 512s229.23 512 512 512v0zM512 846.222c-219.932 0-398.222-178.29-398.222-398.222s178.29-398.222 398.222-398.222v0c219.932 0 398.222 178.29 398.222 398.222s-178.29 398.222-398.222 398.222v0z" />
<glyph unicode="&#xe914;" glyph-name="part-2" horiz-adv-x="1081" d="M739.556 817.778l-341.333-142.222h341.333zM625.778 305.778c0 47.128 38.205 85.333 85.333 85.333s85.333-38.205 85.333-85.333v0c0-47.128-38.205-85.333-85.333-85.333s-85.333 38.205-85.333 85.333v0zM735.175 939.179c9.696 4.152 20.978 6.566 32.825 6.566 47.117 0 85.314-38.186 85.333-85.298v-184.891h113.778c62.838 0 113.778-50.94 113.778-113.778v0-512c0-62.838-50.94-113.778-113.778-113.778v0h-796.444c-62.838 0-113.778 50.94-113.778 113.778v0 512.853l-16.612 40.107c-2.112 4.974-3.34 10.76-3.34 16.832 0 18.268 11.111 33.942 26.943 40.631l0.289 0.109 205.198 84.992 0.114-0.171zM170.667 561.778v-512h796.444v512z" />
<glyph unicode="&#xe915;" glyph-name="part-3" d="M0 521.143c0 40.396 32.747 73.143 73.143 73.143s73.143-32.747 73.143-73.143v0-512c0-40.396-32.747-73.143-73.143-73.143s-73.143 32.747-73.143 73.143v0zM438.857 886.857c0 40.396 32.747 73.143 73.143 73.143s73.143-32.747 73.143-73.143v0-877.714c0-40.396-32.747-73.143-73.143-73.143s-73.143 32.747-73.143 73.143v0zM877.714 301.714c0 40.396 32.747 73.143 73.143 73.143s73.143-32.747 73.143-73.143v0-292.571c0-40.396-32.747-73.143-73.143-73.143s-73.143 32.747-73.143 73.143v0z" />
<glyph unicode="&#xe916;" glyph-name="part-4" horiz-adv-x="1536" d="M426.667 960h1024c47.128 0 85.333-38.205 85.333-85.333s-38.205-85.333-85.333-85.333v0h-1024c-47.128 0-85.333 38.205-85.333 85.333s38.205 85.333 85.333 85.333v0zM426.667 533.333h1024c47.128 0 85.333-38.205 85.333-85.333s-38.205-85.333-85.333-85.333v0h-1024c-47.128 0-85.333 38.205-85.333 85.333s38.205 85.333 85.333 85.333v0zM426.667 106.667h1024c47.128 0 85.333-38.205 85.333-85.333s-38.205-85.333-85.333-85.333v0h-1024c-47.128 0-85.333 38.205-85.333 85.333s38.205 85.333 85.333 85.333v0zM85.333 960c47.128 0 85.333-38.205 85.333-85.333s-38.205-85.333-85.333-85.333v0c-47.128 0-85.333 38.205-85.333 85.333s38.205 85.333 85.333 85.333v0zM85.333 533.333c47.128 0 85.333-38.205 85.333-85.333s-38.205-85.333-85.333-85.333v0c-47.128 0-85.333 38.205-85.333 85.333s38.205 85.333 85.333 85.333v0zM85.333 106.667c47.128 0 85.333-38.205 85.333-85.333s-38.205-85.333-85.333-85.333v0c-47.128 0-85.333 38.205-85.333 85.333s38.205 85.333 85.333 85.333v0z" />
<glyph unicode="&#xe917;" glyph-name="part-5" d="M227.556 476.444c0 47.128 38.205 85.333 85.333 85.333s85.333-38.205 85.333-85.333v0c0-47.128-38.205-85.333-85.333-85.333s-85.333 38.205-85.333 85.333v0zM56.889 789.333h113.778v113.778c0 31.419 25.47 56.889 56.889 56.889s56.889-25.47 56.889-56.889v0-113.778h455.111v113.778c0 31.419 25.47 56.889 56.889 56.889s56.889-25.47 56.889-56.889v0-113.778h113.778c31.419 0 56.889-25.47 56.889-56.889v0-739.556c0-31.419-25.47-56.889-56.889-56.889v0h-910.222c-31.419 0-56.889 25.47-56.889 56.889v0 739.556c0 31.419 25.47 56.889 56.889 56.889v0zM113.778 675.556v-625.778h796.444v625.778z" />
<glyph unicode="&#xe918;" glyph-name="part-6" d="M256 704c0 141.426 114.574 256 256 256s256-114.574 256-256-114.574-256-256-256c-0.017 0-0.037 0-0.057 0-141.353 0-255.943 114.59-255.943 255.943 0 0.020 0 0.040 0 0.060v-0.003zM654.222 704c0 78.62-63.602 142.222-142.222 142.222-0.017 0-0.037 0-0.057 0-78.516 0-142.165-63.65-142.165-142.165 0-0.020 0-0.040 0-0.060v0.003c0-78.62 63.602-142.222 142.222-142.222s142.222 63.602 142.222 142.222zM512 391.111c192.91 0 369.778-68.608 507.62-182.727 2.836-13.477 4.459-28.963 4.459-44.828 0-125.675-101.88-227.556-227.556-227.556-0.028 0-0.055 0-0.083 0h-568.885c-0.007 0-0.014 0-0.022 0-125.675 0-227.556 101.88-227.556 227.556 0 15.865 1.624 31.351 4.714 46.301l-0.254-1.473c136.275 113.699 313.27 182.728 506.388 182.728 0.413 0 0.826 0 1.239-0.001h-0.064zM512 277.333c-144.953 0-282.738-45.227-397.426-127.545 7.102-56.634 54.956-100.011 112.942-100.011 0.014 0 0.028 0 0.042 0h568.887c0.010 0 0.021 0 0.033 0 58.006 0 105.873 43.407 112.892 99.51l0.057 0.557c-109.875 79.698-247.408 127.489-396.104 127.489-0.465 0-0.93 0-1.395-0.001h0.073z" />
<glyph unicode="&#xe919;" glyph-name="social" horiz-adv-x="975" d="M525.8 370.81s18.383-1.56 28.087 10.63l19.163 24.088c9.265 12.044 31.598 19.602 53.541 7.412 12.19-6.973 34.133-20.382 47.689-30.427 14.482-10.63 44.276-35.499 44.276-35.499 14.19-11.849 17.457-29.452 7.899-47.982 0-0.146-0.195-0.293-0.195-0.293-11.048-18.986-24.335-35.223-39.797-49.084l-0.188-0.166-0.293-0.293c-13.702-11.41-27.307-18.042-40.57-19.602-1.56-0.293-3.56-0.488-5.851-0.293-5.851 0-11.605 0.731-17.31 2.584l-0.488 0.634c-20.48 5.705-54.613 20.236-111.567 51.541-37.059 20.382-67.73 41.204-93.623 61.928-15.426 12.206-29.177 24.412-42.214 37.337l0.035-0.035-1.365 1.414-1.414 1.365-1.365 1.414-1.414 1.365c-12.914 12.995-25.135 26.73-36.573 41.116l-0.779 1.014c-21.744 27.34-42.22 57.977-60.094 90.255l-1.736 3.417c-31.354 56.954-45.836 91.087-51.59 111.616l-0.634 0.488c-1.647 4.803-2.598 10.337-2.598 16.094 0 0.411 0.005 0.82 0.014 1.229l-0.001-0.061c-0.045 0.538-0.071 1.165-0.071 1.798 0 1.433 0.132 2.835 0.385 4.194l-0.022-0.141c1.56 13.263 8.192 26.819 19.602 40.57l0.293 0.341c14.073 15.743 30.415 29.071 48.593 39.577l0.949 0.506c18.53 9.606 36.084 6.339 48.030-7.851 0.146-0.146 24.869-29.745 35.45-44.276 10.045-13.751 23.65-35.499 30.427-47.689 12.19-21.943 4.632-44.325-7.412-53.589l-24.088-19.115c-12.19-9.899-10.63-28.087-10.63-28.087s35.791-135.363 169.448-169.448zM736.11 482.962c-0.029 0-0.063 0-0.098 0-7.156 0-12.964 5.774-13.019 12.917v0.005c-0.585 79.141-23.942 140.678-69.973 185.685-46.226 45.007-103.668 67.779-172.666 68.267-0.215-0.013-0.467-0.020-0.72-0.020-7.19 0-13.019 5.829-13.019 13.019s5.829 13.019 13.019 13.019c0.305 0 0.607-0.010 0.907-0.031l-0.040 0.002c75.63-0.488 139.557-25.844 190.659-75.63 51.298-50.176 77.19-118.394 77.873-204.117 0.001-0.044 0.001-0.095 0.001-0.147 0-7.156-5.774-12.964-12.918-13.019h-0.005zM667.355 509.635c-7.065 0.162-12.73 5.927-12.73 13.016 0 0.104 0.001 0.208 0.004 0.311v-0.015c0.975 44.325-11.898 80.701-38.863 110.056s-64.366 45.739-113.42 49.25c-6.486 0.808-11.455 6.286-11.455 12.925 0 7.19 5.829 13.019 13.019 13.019 0.101 0 0.203-0.001 0.304-0.003h-0.015c55.345-3.901 99.035-23.064 130.731-57.588 31.646-34.475 46.86-77.385 45.69-128.244-0.189-7.043-5.944-12.68-13.015-12.68-0.087 0-0.174 0.001-0.261 0.003h0.013zM601.576 532.066c-0.18-0.009-0.39-0.014-0.602-0.014-6.955 0-12.637 5.454-13.001 12.318l-0.001 0.032c-2.146 44.471-22.821 65.829-65.487 68.072-6.48 0.813-11.443 6.289-11.443 12.924 0 7.116 5.709 12.899 12.797 13.018h0.011c56.174-2.926 87.284-35.109 90.112-92.745 0.010-0.194 0.016-0.42 0.016-0.649 0-6.973-5.482-12.666-12.371-13.004l-0.030-0.001zM965.339 364.958c-30.574-250.149-219.136-274.432-252.489-285.257-14.336-4.584-141.41-36.376-306.322-22.479-18.237-21.163-42.423-48.957-59.88-67.779-31.988-34.426-51.59-66.219-84.894-55.881-27.648 8.485-26.088 50.469-26.088 50.469l0.146 103.57h-0.146c-241.371 67.925-237.812 318.074-235.032 451.73 2.584 133.608 28.526 241.371 102.156 315.002 132.242 121.271 403.554 104.936 403.554 104.936 229.961-1.073 333.19-76.069 358.839-99.572 84.699-73.63 131.803-236.885 100.157-494.738zM811.642 807.57c-21.602 19.602-114.834 78.068-309.443 78.994 0 0-230.4 15.116-342.309-86.114-62.22-61.44-83.188-152.771-85.48-264.387-2.341-111.567-14.238-324.706 189.781-381.318-0.146 0-0.146 0 0 0 0 0-0.731-158.184-0.926-172.13 0-9.704 1.56-16.335 7.119-17.701 3.998-1.073 10.045 1.073 15.116 6.144 32.573 32.914 137.021 158.818 137.021 158.818 140.19-9.265 251.611 18.53 263.656 22.43 28.087 8.923 181.004 22.187 206.946 231.131 26.673 215.479-9.899 362.545-81.481 424.131z" />
</font>
</defs>
</svg>
