<svg xmlns="http://www.w3.org/2000/svg" width="31" height="31" viewBox="0 0 31 31"><g><g><g><path fill="#383838" d="M15.495 29.755c-7.863 0-14.26-6.397-14.26-14.26 0-7.863 6.397-14.26 14.26-14.26 7.863 0 14.26 6.397 14.26 14.26 0 7.863-6.397 14.26-14.26 14.26zM26.46 4.54A15.398 15.398 0 0 0 15.5 0C11.36 0 7.467 1.612 4.54 4.54A15.398 15.398 0 0 0 0 15.5c0 4.14 1.612 8.033 4.54 10.96A15.398 15.398 0 0 0 15.5 31c4.14 0 8.033-1.612 10.96-4.54A15.398 15.398 0 0 0 31 15.5c0-4.14-1.612-8.033-4.54-10.96z"/></g><g><path fill="#383838" d="M27.962 18.209a.629.629 0 0 0-.763.438 11.615 11.615 0 0 1-1.73 3.72.595.595 0 0 0 .166.842.64.64 0 0 0 .872-.161 12.805 12.805 0 0 0 1.908-4.101.605.605 0 0 0-.453-.738z"/></g><g><path fill="#383838" d="M28.317 14.86a.627.627 0 0 0-.635.618c0 .177-.004.355-.011.53a.625.625 0 0 0 .634.645c.338 0 .618-.26.633-.591.009-.193.013-.39.013-.584a.627.627 0 0 0-.634-.618z"/></g><g><path fill="#383838" d="M16.431 23.447a.932.932 0 0 1-1.867 0V12.668a.932.932 0 0 1 1.867 0zM15.498 10.5c-1.201 0-2.178.973-2.178 2.168v10.78c0 1.195.977 2.168 2.178 2.168 1.2 0 2.177-.973 2.177-2.169V12.668a2.175 2.175 0 0 0-2.177-2.168z"/></g><g><path fill="#383838" d="M16.158 8.217a.942.942 0 0 1-.66.274.941.941 0 0 1-.66-.273.942.942 0 0 1-.274-.66c0-.246.1-.487.273-.66a.943.943 0 0 1 .66-.274c.246 0 .487.1.66.274a.94.94 0 0 1 .274.66.94.94 0 0 1-.273.66zm.88-2.2a2.195 2.195 0 0 0-1.54-.637c-.573 0-1.134.232-1.54.638a2.193 2.193 0 0 0-.638 1.54c0 .572.232 1.133.638 1.54.406.405.967.637 1.54.637.572 0 1.133-.232 1.54-.638.405-.406.637-.967.637-1.54 0-.573-.232-1.134-.638-1.54z"/></g></g></g></svg>