<svg xmlns="http://www.w3.org/2000/svg" width="20" height="27" viewBox="0 0 20 27">
    <g fill="#FFF" fill-rule="evenodd">
        <path fill-rule="nonzero" d="M14.818 5.407a.777.777 0 0 1-.777-.777V0H.544a.518.518 0 0 0-.518.518v25.379c0 .286.232.518.518.518H18.93a.518.518 0 0 0 .518-.518V5.407h-4.63zM2.276 4.117c0-.428.348-.776.777-.776H8.13c.43 0 .777.348.777.777v6.176a.777.777 0 0 1-.777.777H3.053a.777.777 0 0 1-.777-.777V4.118zm14.145 18.957H3.061a.777.777 0 1 1 0-1.554h13.36a.777.777 0 0 1 0 1.554zm0-3.933H3.061a.777.777 0 1 1 0-1.554h13.36a.777.777 0 0 1 0 1.554zm0-3.933H3.061a.777.777 0 1 1 0-1.554h13.36a.777.777 0 0 1 0 1.554zm0-3.933h-4.29a.777.777 0 0 1 0-1.554h4.29a.777.777 0 1 1 0 1.554z"/>
        <path d="M15.595 1.099v2.754h2.755zM3.83 4.895h3.522v4.622H3.83z"/>
    </g>
</svg>
