<svg xmlns="http://www.w3.org/2000/svg" width="27" height="27" viewBox="0 0 27 27">
    <g fill="#383838" fill-rule="evenodd">
        <path fill-rule="nonzero" d="M13.5 0C6.056 0 0 6.056 0 13.5S6.056 27 13.5 27 27 20.944 27 13.5 20.944 0 13.5 0zm0 25.651c-6.7 0-12.151-5.45-12.151-12.151 0-6.7 5.45-12.151 12.151-12.151 6.7 0 12.151 5.45 12.151 12.151 0 6.7-5.45 12.151-12.151 12.151z"/>
        <path d="M19.778 13.3l-3.753-3.82a.656.656 0 0 0-.943 0 .684.684 0 0 0 0 .96l2.615 2.66H7.701c-.37 0-.67.304-.67.681 0 .377.3.682.67.682h9.99l-2.614 2.66a.684.684 0 0 0 0 .959c.261.266.68.266.942 0l3.754-3.819a.681.681 0 0 0 .196-.482c0-.177-.06-.349-.19-.482z"/>
    </g>
</svg>
