<svg xmlns="http://www.w3.org/2000/svg" width="35" height="35" viewBox="0 0 35 35"><g><g><g><path fill="#fff" d="M33.063 9.49a17.655 17.655 0 0 0-5.168-6.07.712.712 0 0 0-.847 1.146 16.224 16.224 0 0 1 4.75 5.577 15.899 15.899 0 0 1 1.778 7.357c0 8.864-7.212 16.076-16.076 16.076S1.424 26.364 1.424 17.5 8.636 1.424 17.5 1.424A.712.712 0 0 0 17.5 0C7.85 0 0 7.85 0 17.5S7.85 35 17.5 35 35 27.15 35 17.5c0-2.783-.67-5.553-1.937-8.01z"/></g><g><path fill="#fff" d="M13.088 9.393a.717.717 0 0 0-.358.622v15.702c0 .396.317.716.708.716.391 0 .708-.32.708-.716V11.274L24.63 17.58 16.92 22.6a.72.72 0 0 0-.211.988c.211.332.65.428.978.214l8.67-5.644a.717.717 0 0 0-.022-1.217L13.8 9.401a.702.702 0 0 0-.712-.007z"/></g></g></g></svg>