<svg xmlns="http://www.w3.org/2000/svg" width="53" height="53" viewBox="0 0 53 53">
    <defs>
        <linearGradient id="a" x1="-7.723%" x2="103.876%" y1="-48.926%" y2="170.01%">
            <stop offset="0%" stop-color="#00AFFF"/>
            <stop offset="100%" stop-color="#FF1272"/>
        </linearGradient>
    </defs>
    <g fill="url(#a)" fill-rule="evenodd" transform="translate(-979 -6658)">
        <path d="M1024.008 6693.482l-.526-.858a22.628 22.628 0 0 0-3.692-4.57l-1.756-1.672a.46.46 0 0 1-.06-.6l2.398-3.417c.346-.493.665-1.012.949-1.542l2.049-3.834a2.12 2.12 0 0 0-.052-2.105 2.12 2.12 0 0 0-1.83-1.04l-4.436-.005h-.003c-.929 0-1.77.55-2.144 1.4l-.47 1.07a26.47 26.47 0 0 1-4.863 7.405v-7.814a2.064 2.064 0 0 0-2.062-2.062h-6.281a1.873 1.873 0 0 0-1.52 2.961l.44.613c.43.6.658 1.307.658 2.046v5.71c-.774-.9-1.717-2.121-2.516-3.526-1.222-2.15-2.099-4.66-2.512-5.963a2.63 2.63 0 0 0-2.516-1.841h-4.492c-.633 0-1.216.29-1.6.795a1.991 1.991 0 0 0-.331 1.756l.838 2.974a27.39 27.39 0 0 0 2.098 5.275 1.035 1.035 0 1 0 1.834-.961 25.329 25.329 0 0 1-1.94-4.875l-.815-2.894h4.409c.248 0 .466.16.541.397.438 1.381 1.37 4.044 2.686 6.36 1.08 1.9 2.39 3.483 3.3 4.477a1.764 1.764 0 0 0 1.953.455 1.766 1.766 0 0 0 1.134-1.656v-6.483c0-1.175-.363-2.3-1.048-3.254l-.212-.296h5.883v8.302c0 .607.305 1.165.816 1.494.51.328 1.145.374 1.698.121l.427-.194a1.65 1.65 0 0 0 .52-.372 28.54 28.54 0 0 0 5.37-8.117l.47-1.07a.27.27 0 0 1 .247-.163l4.436.005c.015 0 .038 0 .057.033.02.032.009.053.002.066l-2.05 3.834c-.244.457-.519.904-.816 1.329l-2.398 3.416a2.517 2.517 0 0 0 .326 3.29l1.756 1.671a20.56 20.56 0 0 1 3.355 4.152l.525.858c.013.02.051.083.003.169-.048.085-.121.085-.145.085h-3.83c-.491 0-.97-.202-1.313-.555l-3.829-3.937a6.571 6.571 0 0 0-3.311-1.842 1.898 1.898 0 0 0-1.604.377 1.898 1.898 0 0 0-.712 1.485v3.868c0 .333-.27.604-.603.604-2.967 0-5.9-.993-8.256-2.795a25.35 25.35 0 0 1-2.692-2.38 1.035 1.035 0 0 0-1.478 1.449c.905.923 1.885 1.79 2.912 2.575a15.745 15.745 0 0 0 9.513 3.221c1.475 0 2.675-1.2 2.675-2.674v-3.66c.788.211 1.5.629 2.072 1.216l3.829 3.937a3.925 3.925 0 0 0 2.798 1.181h3.829a2.24 2.24 0 0 0 1.908-3.405z"/>
        <path d="M993.498 6686.731l-.012-.016a1.035 1.035 0 1 0-1.682 1.206l.007.01.846-.597-.842.603a1.034 1.034 0 0 0 1.445.239c.464-.334.571-.98.238-1.445zM1000.207 6703.96h-8.437a1.035 1.035 0 0 0 0 2.071h8.437a1.035 1.035 0 1 0 0-2.07zM1004.917 6703.96h-.013a1.035 1.035 0 0 0 0 2.071h.013a1.035 1.035 0 1 0 0-2.07z"/>
        <path fill-rule="nonzero" d="M1025.168 6658h-39.336a6.84 6.84 0 0 0-6.832 6.832v39.336a6.84 6.84 0 0 0 6.832 6.832h39.336a6.84 6.84 0 0 0 6.832-6.832v-39.336a6.84 6.84 0 0 0-6.832-6.832zm4.762 46.168a4.767 4.767 0 0 1-4.762 4.762h-39.336a4.767 4.767 0 0 1-4.762-4.762v-39.336a4.767 4.767 0 0 1 4.762-4.762h39.336a4.767 4.767 0 0 1 4.762 4.762v39.336z"/>
    </g>
</svg>
