<svg xmlns="http://www.w3.org/2000/svg" width="53" height="53" viewBox="0 0 53 53">
    <defs>
        <linearGradient id="a" x1="-7.723%" x2="103.876%" y1="-48.926%" y2="170.01%">
            <stop offset="0%" stop-color="#00AFFF"/>
            <stop offset="100%" stop-color="#FF1272"/>
        </linearGradient>
    </defs>
    <g fill="url(#a)" fill-rule="evenodd" transform="translate(-876 -6658)">
        <path d="M902.5 6696.853c-.572 0-1.035.463-1.035 1.035v.017a1.035 1.035 0 1 0 2.07 0v-.005-.004-.004-.004c0-.572-.463-1.035-1.035-1.035z"/>
        <path d="M918.855 6658h-32.71c-5.594 0-10.145 4.55-10.145 10.145v32.71c0 5.594 4.55 10.145 10.145 10.145H902.5c.572 0 1.035-.463 1.035-1.035v-8.023a1.035 1.035 0 1 0-2.07 0v6.988h-15.32c-4.453 0-8.075-3.622-8.075-8.075v-32.71c0-4.453 3.622-8.075 8.075-8.075h32.71c4.453 0 8.075 3.622 8.075 8.075v32.71c0 4.453-3.622 8.075-8.075 8.075h-6.625v-18.27h6.002c.532 0 .977-.403 1.03-.932l.745-7.397a1.035 1.035 0 0 0-1.03-1.139h-6.747v-3.884c0-.703.224-.964.827-.964h5.873c.572 0 1.035-.464 1.035-1.035v-7.211c0-.572-.463-1.035-1.035-1.035h-7.713c-4.371 0-6.689 1.92-7.864 3.53-1.643 2.252-1.888 4.912-1.888 6.297v4.349h-5.073c-.571 0-1.035.463-1.035 1.035v7.35c0 .572.464 1.035 1.035 1.035h5.073v2.95a1.035 1.035 0 1 0 2.07 0v-3.985c0-.572-.463-1.035-1.035-1.035h-5.072v-5.28h5.072c.572 0 1.035-.464 1.035-1.035v-5.384c0-2.332.749-7.757 7.682-7.757h6.678v5.14h-4.838c-1.337 0-2.897.795-2.897 3.035v4.92c0 .571.464 1.034 1.035 1.034h6.637l-.536 5.327h-6.1c-.572 0-1.036.463-1.036 1.035v20.34c0 .573.464 1.036 1.035 1.036h7.66c5.594 0 10.145-4.55 10.145-10.145v-32.71c0-5.594-4.55-10.145-10.145-10.145z"/>
        <path d="M882.004 6668.61c-.572 0-1.035.464-1.035 1.036v8.643a1.035 1.035 0 1 0 2.07 0v-8.643c0-.572-.463-1.036-1.035-1.036zM882.004 6681.745c-.572 0-1.035.463-1.035 1.035v.012a1.035 1.035 0 1 0 2.07 0v-.012c0-.572-.463-1.035-1.035-1.035z"/>
    </g>
</svg>
