<svg xmlns="http://www.w3.org/2000/svg" width="60" height="44" viewBox="0 0 60 44">
    <defs>
        <linearGradient id="a" x1="-7.723%" x2="103.876%" y1="-48.926%" y2="170.01%">
            <stop offset="0%" stop-color="#00AFFF"/>
            <stop offset="100%" stop-color="#FF1272"/>
        </linearGradient>
    </defs>
    <g fill="url(#a)" fill-rule="evenodd" transform="translate(-1082 -6664)">
        <path d="M1112.296 6664H1112.208c-.645 0-1.17.523-1.172 1.169v.003c0 .646.523 1.17 1.17 1.172H1112.292c.646 0 1.17-.522 1.172-1.169v-.002c0-.646-.522-1.17-1.169-1.173z"/>
        <path d="M1140.757 6671.278c-.77-2.925-3.04-5.23-5.923-6.013-2.974-.81-11.264-1.108-17.695-1.215a1.172 1.172 0 0 0-.04 2.344c8.902.148 14.981.55 17.12 1.133 2.077.564 3.714 2.23 4.271 4.348 1.152 4.37 1.166 13.71 1.166 13.804 0 .094-.014 9.436-1.166 13.806-.557 2.117-2.194 3.783-4.272 4.347-4.295 1.17-22.04 1.184-22.218 1.184-.179 0-17.923-.014-22.219-1.184-2.077-.564-3.714-2.23-4.271-4.348-1.152-4.37-1.166-13.71-1.166-13.804 0-.094.014-9.436 1.166-13.805.557-2.118 2.194-3.784 4.272-4.348 2.185-.595 8.444-1 17.625-1.142a1.172 1.172 0 1 0-.036-2.343c-6.63.102-15.169.397-18.204 1.223-2.885.784-5.154 3.088-5.924 6.013-1.229 4.662-1.243 14.006-1.243 14.402 0 .395.014 9.739 1.243 14.4.77 2.926 3.04 5.23 5.923 6.014 4.595 1.25 22.091 1.265 22.834 1.265.742 0 18.24-.014 22.833-1.265 2.884-.784 5.154-3.088 5.924-6.013 1.229-4.662 1.243-14.006 1.243-14.401 0-.396-.014-9.74-1.243-14.402z"/>
        <path d="M1088.797 6682.577c-.647 0-1.172.524-1.172 1.172v9.55a1.172 1.172 0 1 0 2.344 0v-9.55c0-.648-.525-1.172-1.172-1.172zM1088.797 6677.245c-.647 0-1.172.524-1.172 1.172v.013a1.172 1.172 0 1 0 2.344 0v-.013c0-.648-.525-1.172-1.172-1.172z"/>
        <path fill-rule="nonzero" d="M1121.505 6684.844l-14.532-8.437a1.172 1.172 0 0 0-1.76 1.013v16.875a1.172 1.172 0 0 0 1.76 1.014l14.532-8.438a1.172 1.172 0 0 0 0-2.027zm-13.948 7.416v-12.804l11.025 6.402-11.025 6.402z"/>
    </g>
</svg>
