<svg xmlns="http://www.w3.org/2000/svg" width="53" height="53" viewBox="0 0 53 53">
    <defs>
        <linearGradient id="a" x1="-7.723%" x2="103.876%" y1="-48.926%" y2="170.01%">
            <stop offset="0%" stop-color="#00AFFF"/>
            <stop offset="100%" stop-color="#FF1272"/>
        </linearGradient>
    </defs>
    <g fill="url(#a)" fill-rule="evenodd" transform="translate(-773 -6658)">
        <path fill-rule="nonzero" d="M810.473 6658h-21.946c-8.561 0-15.527 6.966-15.527 15.527v21.946c0 8.561 6.966 15.527 15.527 15.527h21.946c8.561 0 15.527-6.966 15.527-15.527v-21.946c0-8.561-6.966-15.527-15.527-15.527zm13.457 37.473c0 7.42-6.037 13.457-13.457 13.457h-21.946c-7.42 0-13.457-6.037-13.457-13.457v-21.946c0-7.42 6.037-13.457 13.457-13.457h21.946c7.42 0 13.457 6.037 13.457 13.457v21.946z"/>
        <path d="M810 6663h-22c-6.065 0-11 4.935-11 11v22c0 6.065 4.935 11 11 11h6.33a1.038 1.038 0 1 0 0-2.075H788c-4.92 0-8.925-4.004-8.925-8.925v-22c0-4.92 4.004-8.925 8.925-8.925h22c4.92 0 8.925 4.004 8.925 8.925v22c0 4.92-4.004 8.925-8.925 8.925h-6.261a1.038 1.038 0 1 0 0 2.075H810c6.065 0 11-4.935 11-11v-22c0-6.065-4.935-11-11-11z"/>
        <path d="M799.707 6704.293A1.008 1.008 0 0 0 799 6704c-.263 0-.521.107-.707.293a1.008 1.008 0 0 0-.293.707c0 .263.107.521.293.707.186.186.444.293.707.293.263 0 .521-.107.707-.293.186-.186.293-.444.293-.707 0-.263-.107-.521-.293-.707zM790.735 6674.31a.979.979 0 0 0-1.384-.045l-.044.04a.982.982 0 0 0 .673 1.695.976.976 0 0 0 .672-.267l.038-.036a.982.982 0 0 0 .045-1.387z"/>
        <path d="M799.5 6670c-2.308 0-4.605.556-6.642 1.608a1.05 1.05 0 0 0 .964 1.867 12.26 12.26 0 0 1 5.678-1.374c6.837 0 12.399 5.562 12.399 12.399 0 6.837-5.562 12.399-12.399 12.399-6.837 0-12.399-5.562-12.399-12.399 0-2.145.557-4.26 1.61-6.113a1.05 1.05 0 0 0-1.828-1.038A14.504 14.504 0 0 0 785 6684.5c0 7.995 6.505 14.5 14.5 14.5s14.5-6.505 14.5-14.5-6.505-14.5-14.5-14.5z"/>
        <path fill-rule="nonzero" d="M799.5 6675c-5.238 0-9.5 4.262-9.5 9.5s4.262 9.5 9.5 9.5 9.5-4.262 9.5-9.5-4.262-9.5-9.5-9.5zm0 16.889c-4.074 0-7.389-3.315-7.389-7.389s3.315-7.389 7.389-7.389 7.389 3.315 7.389 7.389-3.315 7.389-7.389 7.389zM813 6667c-2.206 0-4 1.794-4 4s1.794 4 4 4 4-1.794 4-4-1.794-4-4-4zm0 5.895a1.897 1.897 0 0 1-1.895-1.895c0-1.045.85-1.895 1.895-1.895s1.895.85 1.895 1.895-.85 1.895-1.895 1.895z"/>
    </g>
</svg>
