<svg xmlns="http://www.w3.org/2000/svg" width="34" height="33" viewBox="0 0 34 33">
    <g fill="#FFF" fill-rule="evenodd">
        <path d="M16.634 29.481c-.838 0-1.657-.08-2.451-.23l-1.943 1.374c1.388.425 2.864.655 4.394.655 1.549 0 3.043-.236 4.446-.672l-1.935-1.368c-.813.158-1.652.241-2.511.241zM13.636 4.052l.644-2.012c-4.922.844-9.004 4.256-10.88 8.84l1.975-.005c1.619-3.362 4.63-5.901 8.26-6.823zM3.929 17.729L2.04 16.32a14.843 14.843 0 0 0 4.123 10.2L6.8 24.5a12.976 12.976 0 0 1-2.871-6.771zM30.043 17.749a13.123 13.123 0 0 1-2.843 6.722l.647 2.049a15.011 15.011 0 0 0 4.113-10.2l-1.917 1.429zM28.61 10.875l1.99.005c-1.88-4.566-5.957-7.972-10.88-8.84l.651 2.022c3.62.94 6.621 3.47 8.24 6.813z"/>
        <path d="M27.507 32.64l-3.979-12.456L34 12.467l-12.965-.03L17 0l-4.035 12.437L0 12.467l10.471 7.717L6.493 32.64 17 24.972z"/>
    </g>
</svg>
